<?xml version="1.0" standalone="no"?>
<!DOCTYPE svg PUBLIC "-//W3C//DTD SVG 20010904//EN"
 "http://www.w3.org/TR/2001/REC-SVG-20010904/DTD/svg10.dtd">
<svg version="1.0" xmlns="http://www.w3.org/2000/svg"
 width="1024.000000pt" height="1024.000000pt" viewBox="0 0 1024.000000 1024.000000"
 preserveAspectRatio="xMidYMid meet">

<g transform="translate(0.000000,1024.000000) scale(0.100000,-0.100000)"
fill="#000000" stroke="none">
<path d="M4625 8214 c-41 -23 -74 -54 -91 -86 -21 -40 -21 -5932 0 -5981 46
-111 198 -142 285 -59 23 22 43 53 50 77 8 29 11 864 11 2979 l0 2940 -21 44
c-12 25 -37 54 -59 68 -49 33 -133 41 -175 18z"/>
<path d="M5367 8188 c-11 -37 -8 -524 3 -552 l9 -25 513 -4 c444 -3 523 -6
588 -21 412 -97 726 -353 849 -692 110 -303 71 -676 -100 -949 -59 -95 -192
-239 -279 -302 -80 -58 -196 -119 -290 -154 -205 -74 -339 -87 -925 -89 -198
0 -363 -4 -367 -8 -5 -5 -7 -132 -6 -283 l3 -274 510 -6 c542 -6 551 -7 715
-60 108 -35 280 -124 371 -193 200 -151 332 -343 401 -582 20 -69 23 -101 23
-254 -1 -149 -4 -187 -23 -257 -104 -384 -393 -676 -781 -789 -167 -49 -240
-54 -742 -54 -416 0 -468 -2 -473 -16 -8 -20 -8 -522 0 -552 l6 -22 504 0
c541 0 630 6 829 54 312 76 576 228 807 462 104 106 133 142 208 256 156 236
248 519 266 821 34 580 -307 1187 -805 1434 l-84 41 75 35 c258 119 530 394
663 672 183 380 202 876 49 1279 -216 564 -708 956 -1356 1077 -104 20 -156
22 -634 26 l-521 5 -6 -24z"/>
<path d="M3920 7649 c-34 -14 -70 -49 -82 -78 -5 -15 -9 -939 -10 -2388 -1
-2349 -1 -2364 19 -2391 11 -15 35 -38 54 -50 28 -20 44 -23 92 -20 64 5 101
26 130 75 16 28 17 159 17 2393 0 2271 0 2364 -18 2394 -36 61 -132 93 -202
65z"/>
<path d="M3305 6848 c-21 -5 -50 -19 -63 -31 -55 -51 -52 46 -52 -1600 l0
-1524 23 -33 c37 -55 71 -74 131 -74 43 0 61 5 91 28 70 53 65 -62 65 1603 0
1449 -1 1510 -19 1549 -30 66 -101 99 -176 82z"/>
<path d="M2693 6035 c-18 -8 -42 -29 -53 -47 -20 -32 -20 -45 -18 -810 3 -769
3 -777 24 -805 52 -71 135 -80 194 -22 l30 31 0 797 0 798 -25 27 c-43 46 -94
57 -152 31z"/>
<path d="M2103 5419 c-114 -56 -156 -189 -97 -308 17 -34 41 -62 67 -79 35
-23 51 -27 118 -27 70 0 81 3 121 30 63 45 93 104 92 185 0 71 -15 108 -61
154 -64 65 -163 83 -240 45z"/>
</g>
</svg>
