<?xml version="1.0" standalone="no"?>
<!DOCTYPE svg PUBLIC "-//W3C//DTD SVG 20010904//EN"
 "http://www.w3.org/TR/2001/REC-SVG-20010904/DTD/svg10.dtd">
<svg version="1.0" xmlns="http://www.w3.org/2000/svg"
 width="1024.000000pt" height="1024.000000pt" viewBox="0 0 1024.000000 1024.000000"
 preserveAspectRatio="xMidYMid meet">

<g transform="translate(0.000000,1024.000000) scale(0.100000,-0.100000)"
fill="#000000" stroke="none">
<path d="M4765 7209 c-140 -21 -273 -81 -364 -165 -149 -138 -192 -373 -101
-560 37 -76 145 -181 228 -223 71 -35 114 -49 329 -105 185 -49 233 -68 275
-113 85 -90 54 -244 -62 -303 -44 -22 -127 -40 -188 -40 -88 0 -203 43 -249
92 -27 28 -59 99 -68 151 l-7 37 -153 0 c-173 0 -165 4 -165 -83 0 -117 51
-228 143 -313 118 -109 273 -163 492 -171 165 -6 251 9 360 61 129 62 212 158
261 302 24 71 26 90 22 185 -4 96 -8 113 -40 180 -83 174 -182 237 -490 314
-226 56 -295 82 -338 125 -57 57 -64 118 -24 198 42 85 121 122 259 123 148 1
237 -53 275 -167 l17 -49 155 -3 c134 -2 157 0 162 13 3 9 1 48 -4 88 -33 232
-217 392 -490 426 -96 12 -149 12 -235 0z"/>
<path d="M5799 7178 c-19 -7 -19 -27 -19 -861 0 -815 1 -855 18 -870 15 -14
42 -17 160 -17 129 0 142 2 152 19 6 13 10 145 10 360 l0 341 355 0 355 0 0
-338 c0 -289 2 -341 16 -360 14 -21 22 -22 159 -22 117 0 146 3 159 16 14 14
16 103 14 872 l-3 857 -162 3 c-157 2 -162 2 -173 -19 -9 -15 -11 -119 -8
-360 l3 -339 -357 0 -358 0 0 349 c0 267 -3 351 -13 359 -14 12 -279 20 -308
10z"/>
<path d="M7545 7180 c-142 -5 -150 -6 -153 -26 -2 -12 57 -129 141 -280 79
-142 207 -376 285 -519 l141 -260 0 -318 c0 -230 3 -323 12 -333 15 -19 298
-21 317 -2 9 9 12 98 12 338 l0 327 121 229 c107 201 382 708 428 787 15 27
15 29 -7 47 -20 17 -37 18 -175 14 -102 -3 -155 -8 -163 -17 -7 -6 -92 -165
-189 -352 -98 -187 -180 -343 -184 -347 -5 -6 -179 306 -336 605 -31 59 -60
107 -65 107 -5 0 -14 1 -22 3 -7 1 -80 0 -163 -3z"/>
<path d="M1390 6317 c0 -658 3 -866 12 -875 19 -19 783 -16 867 3 133 32 278
131 336 230 128 218 83 483 -109 632 l-28 23 31 36 c88 100 124 195 125 329 2
234 -111 389 -336 460 -79 25 -80 25 -489 25 l-409 0 0 -863z m785 534 c79
-37 115 -95 115 -187 0 -88 -44 -156 -122 -189 -30 -12 -79 -15 -238 -15
l-200 0 0 205 0 205 203 0 c175 0 207 -3 242 -19z m16 -702 c46 -16 97 -55
120 -92 47 -79 28 -200 -41 -260 -60 -51 -93 -57 -329 -57 l-211 0 0 210 0
210 214 0 c133 0 226 -4 247 -11z"/>
<path d="M2928 6983 c-3 -109 -5 -495 -7 -858 -1 -522 1 -664 11 -678 12 -16
50 -17 548 -15 l535 3 0 153 0 153 -378 2 -378 2 -2 202 -2 203 330 2 330 3 3
152 3 152 -24 6 c-13 4 -163 5 -333 3 l-309 -3 -3 202 -3 203 383 2 383 3 0
150 0 150 -542 3 -541 2 -4 -197z"/>
<path d="M3773 4953 c-17 -25 -18 -78 -21 -751 -2 -532 1 -728 9 -738 15 -19
142 -19 157 -1 7 8 12 123 14 327 3 306 4 316 26 358 29 55 90 98 157 112 70
15 123 0 176 -47 66 -60 71 -92 78 -448 l6 -310 68 -3 c42 -2 74 2 83 9 11 9
14 65 14 308 0 163 -5 325 -10 361 -30 188 -155 302 -333 302 -57 0 -80 -6
-133 -32 -35 -17 -78 -48 -97 -70 -19 -22 -36 -40 -38 -40 -2 0 -4 120 -5 268
-1 357 -16 422 -99 422 -26 0 -39 -6 -52 -27z"/>
<path d="M4783 4825 c-63 -27 -91 -112 -58 -175 41 -80 172 -79 219 0 33 57 7
141 -55 172 -41 21 -63 22 -106 3z"/>
<path d="M1486 4769 c-75 -21 -85 -73 -30 -164 49 -80 104 -252 148 -460 76
-353 126 -509 199 -618 94 -139 252 -154 381 -36 103 94 145 185 236 515 62
224 123 374 159 394 16 8 21 5 30 -22 6 -18 20 -106 31 -197 42 -344 106 -576
184 -668 39 -47 101 -73 172 -73 76 1 130 25 188 85 83 87 140 218 213 490 57
214 90 312 158 475 30 71 55 138 55 148 0 70 -122 66 -201 -5 -71 -64 -142
-245 -239 -607 -71 -266 -103 -329 -161 -311 -29 10 -66 92 -93 208 -28 118
-37 175 -70 423 -35 262 -59 330 -135 381 -76 51 -160 38 -232 -36 -45 -47
-130 -199 -184 -331 -14 -36 -55 -167 -91 -293 -35 -125 -73 -247 -85 -272
-25 -54 -71 -95 -105 -95 -87 0 -124 94 -199 500 -58 317 -94 429 -161 509
-44 52 -111 76 -168 60z"/>
<path d="M5322 4424 c-197 -53 -285 -272 -164 -406 45 -50 77 -66 232 -118
204 -68 260 -107 260 -183 0 -32 -6 -46 -35 -73 -97 -91 -296 -56 -340 61 -10
25 -23 45 -29 46 -47 5 -125 -16 -143 -38 -38 -48 93 -212 200 -252 121 -45
283 -34 383 24 151 88 190 283 82 401 -47 51 -98 77 -268 133 -202 67 -246
103 -216 174 16 40 55 70 114 87 92 28 212 -30 228 -109 l7 -31 74 0 c86 0 91
5 73 80 -15 64 -60 131 -110 164 -81 53 -234 71 -348 40z"/>
<path d="M6330 4418 c-36 -14 -74 -40 -111 -78 l-57 -56 -6 47 c-9 63 -31 89
-79 91 -21 1 -44 -5 -52 -13 -21 -21 -33 -1302 -12 -1339 12 -22 19 -25 68
-23 37 2 58 8 67 20 9 12 12 81 12 260 l0 243 60 -44 c88 -65 137 -81 250 -81
82 0 103 4 152 27 31 14 77 45 102 68 218 201 227 577 18 793 -20 21 -66 52
-101 70 -57 28 -76 32 -160 34 -79 3 -106 -1 -151 -19z m185 -152 c86 -36 161
-127 191 -230 58 -206 -93 -446 -282 -446 -72 0 -160 45 -203 104 -127 178
-72 479 104 570 38 20 144 21 190 2z"/>
<path d="M7330 4409 c-272 -107 -387 -430 -253 -709 40 -83 152 -191 228 -219
166 -62 320 -46 444 48 57 42 121 118 121 143 0 9 -20 33 -45 54 l-46 37 -58
-62 c-76 -79 -142 -111 -231 -111 -147 0 -271 113 -296 268 l-7 44 347 -3
c295 -3 349 -1 357 11 15 22 4 147 -19 213 -25 70 -97 174 -151 216 -74 59
-146 85 -246 88 -73 3 -100 -1 -145 -18z m255 -153 c57 -34 110 -97 129 -154
30 -87 42 -82 -186 -84 -253 -2 -328 -1 -334 4 -2 3 3 27 11 55 51 171 241
260 380 179z"/>
<path d="M8135 4423 c-16 -2 -36 -12 -42 -21 -10 -12 -13 -124 -13 -478 0
-523 -9 -474 90 -474 39 0 62 5 70 15 10 12 11 62 6 223 -8 232 0 314 40 402
47 103 140 170 235 170 33 0 49 5 53 16 11 28 6 130 -6 142 -7 7 -41 12 -83
12 -62 0 -77 -4 -116 -29 -25 -17 -59 -54 -79 -85 -19 -30 -38 -55 -41 -56 -3
0 -9 30 -12 68 -5 51 -11 71 -28 85 -12 9 -26 16 -33 16 -6 -1 -24 -4 -41 -6z"/>
<path d="M4762 4408 c-9 -9 -12 -121 -12 -479 0 -416 2 -468 16 -473 9 -3 47
-6 85 -6 l69 0 -2 483 -3 482 -70 3 c-46 2 -74 -1 -83 -10z"/>
</g>
</svg>
