<?xml version="1.0" standalone="no"?>
<!DOCTYPE svg PUBLIC "-//W3C//DTD SVG 20010904//EN"
 "http://www.w3.org/TR/2001/REC-SVG-20010904/DTD/svg10.dtd">
<svg version="1.0" xmlns="http://www.w3.org/2000/svg"
 width="1024.000000pt" height="1024.000000pt" viewBox="0 0 1024.000000 1024.000000"
 preserveAspectRatio="xMidYMid meet">

<g transform="translate(0.000000,1024.000000) scale(0.100000,-0.100000)"
fill="#000000" stroke="none">
<path d="M2600 8039 c-19 -11 -44 -33 -55 -47 -20 -27 -20 -43 -20 -2827 0
-2757 0 -2800 19 -2826 40 -51 67 -64 138 -64 72 0 102 14 142 69 l21 27 2
2782 3 2782 -23 40 c-44 78 -151 108 -227 64z"/>
<path d="M3310 7766 l0 -274 473 -5 c427 -4 481 -6 562 -25 360 -81 633 -284
769 -572 54 -116 73 -187 84 -318 24 -277 -49 -540 -200 -728 -163 -203 -346
-319 -617 -392 -95 -25 -101 -26 -581 -31 l-485 -6 -3 -267 -2 -268 427 0
c236 0 462 -5 503 -10 464 -60 862 -399 945 -805 21 -103 21 -315 1 -410 -91
-421 -432 -735 -881 -810 -82 -14 -180 -17 -545 -18 l-445 -2 -3 -273 -2 -273
532 3 c508 4 538 5 642 27 152 31 253 65 382 125 383 182 682 517 814 913 66
201 75 260 74 503 0 208 -2 219 -31 330 -36 133 -103 297 -162 399 -133 228
-360 443 -566 537 -30 14 -55 29 -55 32 0 4 31 21 68 39 118 56 223 133 337
247 208 208 331 437 392 726 14 68 18 131 18 310 -1 243 -11 311 -72 490 -123
364 -410 698 -749 872 -119 62 -269 121 -384 152 -188 51 -257 56 -767 56
l-473 0 0 -274z"/>
<path d="M1943 7511 c-80 -37 -73 182 -73 -2296 0 -2091 1 -2218 17 -2246 25
-41 93 -73 144 -66 50 7 84 29 109 70 20 31 20 69 20 2243 l0 2211 -23 34
c-26 39 -79 69 -122 69 -16 0 -49 -9 -72 -19z"/>
<path d="M1383 6770 c-47 -10 -78 -34 -97 -73 -15 -32 -16 -156 -16 -1454 0
-1330 1 -1420 18 -1452 26 -53 64 -75 125 -75 63 0 112 29 133 80 21 49 21
2839 0 2887 -27 64 -96 101 -163 87z"/>
<path d="M798 6005 c-60 -34 -58 -7 -58 -797 0 -708 1 -724 20 -756 41 -67
142 -76 189 -15 21 25 21 34 21 769 l0 744 -28 31 c-34 38 -100 49 -144 24z"/>
<path d="M255 5431 c-144 -66 -159 -277 -26 -363 41 -26 53 -29 112 -26 88 5
141 38 175 111 13 29 24 66 24 82 0 151 -153 257 -285 196z"/>
<path d="M5755 5171 c-11 -5 -31 -21 -45 -36 -35 -38 -34 -138 2 -210 14 -27
42 -83 62 -123 77 -152 156 -401 232 -727 14 -60 36 -157 50 -215 14 -58 31
-132 39 -165 53 -231 71 -303 97 -400 110 -410 259 -667 447 -772 58 -33 72
-37 160 -41 69 -3 114 0 159 12 292 74 498 401 697 1105 60 212 67 233 92 316
67 217 169 457 217 508 69 75 89 14 151 -463 21 -160 56 -365 95 -554 40 -197
129 -484 186 -601 60 -124 142 -202 260 -247 48 -18 79 -23 164 -23 122 0 167
14 272 82 209 137 338 388 508 993 66 234 146 490 205 660 44 125 216 584 226
602 19 35 10 83 -19 112 -36 33 -80 41 -157 27 -83 -16 -139 -46 -204 -110
-141 -139 -292 -504 -441 -1066 -17 -66 -36 -133 -41 -150 -5 -16 -23 -77 -40
-135 -100 -341 -162 -460 -240 -460 -34 0 -71 19 -97 50 -50 59 -111 254 -161
520 -45 238 -49 261 -55 305 -23 176 -107 668 -141 825 -33 155 -114 273 -224
327 -48 24 -69 28 -141 28 -77 0 -92 -3 -155 -34 -127 -63 -221 -182 -341
-429 -112 -230 -230 -546 -316 -842 -73 -250 -169 -538 -209 -628 -35 -78 -51
-98 -99 -122 -129 -66 -237 -12 -298 147 -56 144 -83 260 -217 923 -43 215
-107 469 -151 600 -100 300 -208 408 -419 416 -49 2 -99 0 -110 -5z"/>
</g>
</svg>
