<?xml version="1.0" standalone="no"?>
<!DOCTYPE svg PUBLIC "-//W3C//DTD SVG 20010904//EN"
 "http://www.w3.org/TR/2001/REC-SVG-20010904/DTD/svg10.dtd">
<svg version="1.0" xmlns="http://www.w3.org/2000/svg"
 width="152.000000pt" height="140.000000pt" viewBox="0 0 152.000000 140.000000"
 preserveAspectRatio="xMidYMid meet">

<g transform="translate(0.000000,140.000000) scale(0.100000,-0.100000)"
fill="#000000" stroke="none">
<path d="M72 1088 c-19 -19 -14 -46 23 -122 33 -68 52 -135 108 -382 51 -223
114 -333 200 -349 80 -15 166 45 221 154 14 27 46 122 71 211 46 163 75 240
101 261 19 16 29 -14 43 -136 15 -130 43 -265 71 -338 39 -104 91 -144 176
-134 102 11 165 110 239 372 25 88 66 213 91 277 39 98 45 120 34 133 -28 33
-107 5 -145 -53 -33 -50 -84 -194 -125 -352 -48 -186 -78 -233 -119 -189 -28
30 -57 149 -86 352 -28 193 -44 247 -83 277 -40 32 -103 27 -147 -12 -54 -47
-126 -204 -185 -407 -28 -96 -60 -187 -71 -203 -39 -55 -101 -28 -128 55 -6
18 -29 124 -51 237 -57 286 -95 360 -184 360 -23 0 -47 -5 -54 -12z"/>
</g>
</svg>
