<?xml version="1.0" standalone="no"?>
<!DOCTYPE svg PUBLIC "-//W3C//DTD SVG 20010904//EN"
 "http://www.w3.org/TR/2001/REC-SVG-20010904/DTD/svg10.dtd">
<svg version="1.0" xmlns="http://www.w3.org/2000/svg"
 width="543.000000pt" height="150.000000pt" viewBox="0 0 543.000000 150.000000"
 preserveAspectRatio="xMidYMid meet">

<g transform="translate(0.000000,150.000000) scale(0.100000,-0.100000)"
fill="#000000" stroke="none">
<path d="M1986 1328 c-14 -20 -16 -83 -16 -490 l0 -468 54 0 55 0 3 208 c3
236 9 256 83 292 50 24 76 25 121 4 62 -30 68 -54 74 -289 l5 -210 53 -3 53
-3 -3 238 -3 238 -28 47 c-38 65 -100 101 -176 102 -65 0 -127 -27 -160 -71
l-20 -28 -1 175 c-1 187 -9 247 -36 267 -25 19 -41 16 -58 -9z"/>
<path d="M2605 1225 c-59 -58 5 -151 85 -124 35 13 50 35 50 77 0 65 -87 96
-135 47z"/>
<path d="M492 1198 c-19 -19 -14 -46 23 -122 33 -68 52 -135 108 -382 51 -223
114 -333 200 -349 80 -15 166 45 221 154 14 27 46 122 71 211 46 163 75 240
101 261 19 16 29 -14 43 -136 15 -130 43 -265 71 -338 39 -104 91 -144 176
-134 102 11 165 110 239 372 25 88 66 213 91 277 39 98 45 120 34 133 -28 33
-107 5 -145 -53 -33 -50 -84 -194 -125 -352 -48 -186 -78 -233 -119 -189 -28
30 -57 149 -86 352 -28 193 -44 247 -83 277 -40 32 -103 27 -147 -12 -54 -47
-126 -204 -185 -407 -28 -96 -60 -187 -71 -203 -39 -55 -101 -28 -128 55 -6
18 -29 124 -51 237 -57 286 -95 360 -184 360 -23 0 -47 -5 -54 -12z"/>
<path d="M2955 985 c-51 -18 -101 -72 -115 -126 -10 -35 -9 -50 5 -85 21 -55
53 -78 157 -113 155 -52 195 -83 182 -137 -22 -86 -198 -84 -240 4 -15 33 -18
34 -57 28 -23 -4 -46 -11 -51 -16 -27 -27 50 -130 122 -162 59 -27 165 -27
224 -1 122 55 155 200 63 281 -18 16 -52 36 -76 45 -24 8 -79 27 -122 42 -94
33 -117 57 -93 102 8 16 26 34 41 41 63 29 158 0 171 -53 6 -22 11 -25 55 -25
46 0 49 2 49 25 0 31 -31 93 -58 118 -49 45 -176 60 -257 32z"/>
<path d="M3604 977 c-28 -14 -60 -37 -71 -52 l-20 -28 -7 33 c-3 18 -11 39
-17 47 -15 17 -53 17 -68 -1 -8 -9 -10 -133 -9 -437 l3 -424 39 -3 c24 -2 42
2 47 10 5 7 9 82 9 166 l0 153 43 -29 c117 -80 229 -70 329 29 48 48 60 67 79
128 37 125 13 256 -66 349 -65 77 -197 104 -291 59z m139 -93 c81 -41 121
-108 121 -204 0 -76 -23 -130 -79 -178 -42 -37 -71 -46 -130 -40 -92 11 -147
87 -147 206 -1 70 23 144 60 186 40 44 119 58 175 30z"/>
<path d="M4945 986 c-29 -12 -64 -48 -92 -92 -10 -17 -12 -14 -12 22 -1 56
-18 76 -61 72 l-35 -3 -3 -308 -2 -308 52 3 53 3 0 175 c0 191 8 225 62 282
30 31 105 63 127 55 8 -3 17 1 20 9 9 22 7 82 -2 88 -21 13 -80 14 -107 2z"/>
<path d="M2617 984 c-4 -4 -7 -144 -7 -311 l0 -303 55 0 55 0 -2 308 -3 307
-45 3 c-25 2 -49 0 -53 -4z"/>
<path d="M4235 969 c-57 -28 -120 -94 -147 -153 -18 -40 -23 -69 -23 -136 0
-100 20 -154 85 -223 60 -66 118 -91 210 -91 90 0 151 25 205 86 42 46 42 72
2 96 -28 17 -29 16 -49 -11 -23 -32 -90 -72 -133 -81 -68 -14 -153 34 -190
108 -45 90 -56 85 198 88 l222 3 3 53 c6 98 -68 214 -163 258 -65 31 -162 32
-220 3z m191 -90 c41 -25 68 -62 82 -111 l10 -38 -174 0 -174 0 6 28 c27 113
159 177 250 121z"/>
</g>
</svg>
